<?xml version="1.0" standalone="no"?>
<!DOCTYPE svg PUBLIC "-//W3C//DTD SVG 20010904//EN"
 "http://www.w3.org/TR/2001/REC-SVG-20010904/DTD/svg10.dtd">
<svg version="1.0" xmlns="http://www.w3.org/2000/svg"
 width="500.000000pt" height="500.000000pt" viewBox="0 0 500.000000 500.000000"
 preserveAspectRatio="xMidYMid meet">

<g transform="translate(0.000000,500.000000) scale(0.100000,-0.100000)"
fill="#000000" stroke="none">
<path d="M734 4662 c4 -23 4 -23 -15 -6 -10 9 -19 15 -19 13 0 -13 135 -383
154 -424 8 -16 22 -58 32 -92 9 -35 20 -63 24 -63 4 0 8 -10 8 -22 0 -13 17
-59 37 -103 50 -107 174 -390 241 -550 31 -71 59 -139 64 -150 4 -11 16 -45
25 -75 9 -30 22 -68 29 -85 37 -82 87 -208 93 -233 3 -13 12 -26 19 -29 7 -2
10 -11 8 -18 -3 -7 2 -27 10 -44 19 -36 20 -45 4 -35 -8 5 -9 2 -5 -10 4 -10
7 -20 7 -22 0 -3 4 -3 9 0 5 3 12 -1 15 -10 4 -9 2 -13 -5 -8 -6 3 -4 -5 5
-18 9 -14 13 -28 9 -32 -4 -4 0 -4 9 -1 11 4 17 -1 22 -20 4 -14 4 -31 0 -37
-4 -7 -3 -8 4 -4 12 7 54 -74 71 -140 6 -22 24 -65 41 -95 16 -30 30 -60 30
-67 0 -8 8 -26 18 -40 10 -15 38 -74 61 -132 24 -58 70 -157 101 -221 32 -65
64 -135 71 -158 7 -23 15 -41 19 -41 4 0 10 -19 14 -42 4 -23 11 -47 16 -53 4
-5 31 -62 58 -125 45 -104 49 -115 34 -127 -10 -7 -25 -13 -34 -13 -9 0 -27
-13 -40 -29 -25 -32 -96 -71 -128 -71 -11 0 -20 -4 -20 -10 0 -5 -6 -10 -14
-10 -7 0 -20 -9 -27 -20 -8 -12 -28 -22 -49 -24 -24 -2 -46 -15 -77 -47 -24
-24 -47 -44 -51 -45 -18 -2 -62 -25 -106 -55 -64 -42 -177 -149 -171 -159 3
-5 21 -6 40 -3 23 4 35 2 35 -6 0 -13 69 19 117 55 17 13 37 24 43 24 6 0 13
7 16 15 5 12 10 13 20 4 11 -9 18 -8 29 1 9 7 18 10 21 8 6 -7 -49 -48 -64
-48 -5 0 -13 -7 -16 -16 -3 -8 -10 -13 -15 -9 -6 3 -15 -4 -21 -15 -6 -11 -14
-20 -19 -20 -4 0 -43 -20 -87 -45 l-79 -45 45 -1 c25 -1 50 -1 57 0 6 1 13 -9
15 -21 2 -15 9 -22 20 -20 9 1 19 -2 22 -7 3 -5 -20 -19 -52 -31 -31 -13 -68
-34 -83 -47 -14 -12 -31 -23 -38 -23 -20 0 -75 -32 -89 -52 -7 -10 -17 -16
-22 -13 -5 3 -17 -6 -26 -20 -13 -20 -14 -28 -4 -40 13 -16 70 -21 70 -6 0 4
10 6 23 4 23 -5 91 20 102 37 3 5 11 10 17 10 6 0 3 -9 -7 -20 -23 -26 -10
-26 22 0 14 11 34 20 44 20 9 0 19 3 21 8 3 7 142 82 152 82 3 0 4 -10 2 -22
-2 -13 -10 -22 -17 -20 -10 2 -10 0 1 -13 9 -11 25 -15 49 -12 44 4 111 28
111 39 0 4 9 8 19 8 11 0 23 5 26 10 10 16 28 12 22 -5 -4 -8 -2 -17 2 -20 5
-3 12 2 15 11 3 8 10 12 16 9 5 -3 10 -2 10 3 0 6 14 15 30 21 29 10 42 23 18
18 -7 -1 -13 5 -13 13 0 8 5 14 10 13 6 -1 33 14 60 32 38 26 51 31 55 20 4
-11 10 -11 38 0 17 8 32 19 32 25 0 5 6 10 13 10 6 0 24 6 38 14 14 7 38 16
54 20 16 4 42 18 58 32 16 13 33 25 38 25 5 1 13 2 17 3 12 2 93 36 124 52 14
8 39 16 55 18 28 3 163 56 259 102 28 13 57 24 65 24 8 0 27 7 43 15 16 9 42
17 58 19 15 1 31 6 35 9 10 11 45 8 38 -3 -8 -13 5 -13 25 0 11 7 11 10 2 10
-7 0 -10 5 -6 11 5 8 10 7 16 -4 10 -19 53 -8 53 14 0 19 35 24 46 7 7 -10 9
-10 9 2 0 17 41 35 105 45 52 9 108 28 117 39 3 5 20 9 37 9 19 0 31 5 31 14
0 7 7 13 15 13 8 0 15 -4 15 -10 0 -12 51 10 66 29 6 8 20 12 33 8 11 -3 21
-1 21 5 0 6 10 8 23 4 14 -3 38 4 66 19 24 14 48 25 55 25 7 0 21 8 32 18 18
17 70 37 86 34 4 -1 31 24 60 55 29 31 69 72 88 90 78 73 97 94 98 106 0 7 4
36 8 64 6 44 4 54 -10 59 -9 3 -16 10 -16 16 0 5 5 6 11 2 7 -4 10 -1 7 7 -3
8 -11 13 -17 12 -6 -2 -11 4 -11 12 0 8 -13 21 -29 30 -17 8 -36 23 -43 33
-17 23 -110 82 -130 82 -8 0 -23 9 -33 20 -10 11 -21 17 -25 15 -14 -9 -41 7
-36 20 3 8 -2 16 -10 19 -24 9 -27 7 -14 -9 15 -18 1 -20 -35 -3 -15 7 -24 17
-21 25 3 7 1 14 -4 14 -6 1 -14 3 -20 4 -5 1 -14 3 -20 4 -5 0 -7 8 -4 16 4 8
2 15 -4 15 -6 0 -12 -5 -14 -12 -4 -10 -8 -10 -19 0 -8 7 -25 21 -39 32 l-25
19 25 1 c22 1 21 3 -10 13 -22 8 -38 9 -42 3 -8 -12 -108 52 -108 70 0 17 -37
38 -44 25 -10 -16 -74 10 -80 32 -3 12 -8 18 -12 14 -11 -11 -43 23 -37 39 3
8 2 14 -1 14 -5 0 -69 -23 -111 -40 -41 -17 -55 -19 -60 -10 -4 6 -11 10 -16
10 -6 0 -8 -4 -4 -10 3 -5 -14 -14 -37 -21 -24 -6 -37 -14 -30 -16 10 -4 8 -9
-5 -19 -12 -9 -13 -13 -5 -14 7 0 10 -5 7 -10 -4 -6 -3 -10 2 -9 26 4 34 -2
28 -23 -5 -21 -5 -21 8 -6 8 11 18 14 27 8 8 -5 18 -6 24 -3 5 3 6 1 3 -4 -9
-15 15 -23 52 -18 19 3 39 -3 56 -17 14 -11 29 -18 32 -15 8 9 32 -17 25 -27
-3 -5 2 -7 10 -3 9 3 20 1 26 -5 12 -12 82 -28 82 -19 0 6 18 7 70 2 8 0 20
-11 25 -23 6 -13 18 -22 28 -22 9 1 17 -3 17 -8 0 -6 7 -7 16 -4 8 3 12 2 9
-4 -4 -6 6 -7 25 -4 23 5 30 3 30 -9 0 -17 40 -30 65 -21 10 4 15 2 13 -7 -2
-8 7 -13 22 -13 18 -1 24 -6 22 -18 -2 -11 3 -18 13 -18 10 0 13 5 9 11 -4 7
-1 10 7 7 8 -3 13 -11 11 -18 -1 -6 3 -10 10 -8 14 5 78 -55 78 -73 0 -14 36
-60 42 -53 3 3 8 -2 11 -11 4 -8 2 -15 -4 -15 -6 0 -3 -7 5 -16 19 -18 20 -31
5 -89 -9 -35 -24 -56 -78 -103 -104 -92 -210 -152 -258 -143 -6 1 -14 -3 -18
-8 -3 -6 -12 -8 -19 -5 -8 3 -29 -2 -47 -11 -17 -10 -41 -18 -53 -20 -12 -2
-36 -8 -54 -14 -30 -9 -32 -8 -21 5 10 13 10 17 -1 24 -7 4 -10 15 -7 23 4 12
2 14 -10 10 -11 -4 -14 -2 -9 5 4 7 2 12 -3 12 -6 0 -18 17 -26 37 -9 20 -33
54 -55 74 -22 21 -40 42 -40 47 0 42 -49 79 -82 62 -7 -4 -26 -1 -43 6 -16 7
-23 13 -15 13 8 1 22 -4 30 -9 10 -6 20 -4 32 7 27 24 22 43 -11 43 -17 0 -32
3 -35 8 -2 4 14 6 37 4 32 -2 38 -1 27 7 -8 6 -23 11 -32 11 -9 0 -19 4 -22 9
-4 5 18 2 46 -6 29 -8 64 -17 78 -20 52 -10 54 -12 30 -33 -25 -22 -23 -34 4
-24 15 6 34 50 25 58 -2 2 -74 26 -159 54 -85 29 -144 49 -130 47 39 -8 76
-13 62 -8 -7 3 -10 9 -7 14 4 5 0 9 -8 9 -20 0 -79 114 -70 136 4 12 3 15 -5
10 -7 -4 -12 -15 -12 -24 -1 -13 -4 -11 -14 6 -11 21 -14 22 -26 7 -7 -9 -22
-14 -31 -12 -10 3 -24 -2 -31 -11 -11 -13 -10 -15 5 -9 9 3 17 2 17 -2 0 -17
-34 -22 -48 -7 -18 18 -8 50 13 42 10 -3 15 1 15 12 0 23 19 42 35 36 7 -3 16
-1 20 5 3 6 -1 11 -9 11 -9 0 -16 6 -16 14 0 7 -7 19 -15 26 -8 7 -13 16 -10
20 3 4 -2 13 -10 20 -8 7 -15 17 -15 22 0 6 -11 19 -24 29 -14 11 -35 40 -47
64 -25 49 -35 54 -56 28 -13 -17 -13 -16 -4 2 13 28 38 49 91 75 59 30 179 75
211 79 3 1 15 10 27 21 12 11 25 19 29 18 4 -1 19 4 33 11 13 8 31 15 40 16 8
1 63 25 122 53 59 28 120 54 135 58 34 8 55 23 47 35 -3 5 -1 9 5 9 5 0 11 -5
13 -10 2 -6 39 7 83 30 44 22 94 43 112 46 24 4 30 10 26 22 -4 14 -3 14 5 3
9 -12 13 -12 26 -2 9 8 16 10 16 5 0 -5 4 -4 8 1 11 16 62 36 74 29 7 -5 9 0
6 13 -5 17 -1 21 16 19 28 -4 66 10 66 24 0 12 -43 7 -84 -9 -16 -6 -34 -10
-40 -8 -6 2 -36 -4 -66 -15 -30 -10 -64 -17 -75 -16 -13 2 -19 -2 -17 -11 2
-8 -3 -11 -12 -8 -11 4 -13 1 -9 -10 5 -13 0 -15 -25 -11 -18 2 -32 2 -32 -1
0 -6 -52 -31 -144 -72 -51 -22 -177 -83 -231 -111 -16 -9 -43 -22 -60 -30 -16
-7 -32 -15 -35 -19 -3 -3 -21 -11 -40 -19 -19 -7 -89 -40 -156 -72 -67 -33
-128 -60 -137 -62 -10 -1 -28 -17 -42 -36 -14 -19 -25 -29 -25 -24 0 6 5 15
12 22 15 15 19 42 7 42 -11 0 -1 69 12 86 5 6 6 14 1 18 -4 4 1 12 11 17 9 6
17 18 17 28 0 14 43 38 173 100 95 44 178 81 184 81 7 0 17 8 22 18 6 9 11 13
11 8 0 -4 10 -2 23 6 12 8 43 22 70 32 26 10 47 22 47 27 0 6 5 7 10 4 6 -4
39 9 73 28 34 18 68 32 75 30 6 -3 12 0 12 5 0 6 15 14 32 18 39 8 118 44 136
62 7 6 19 12 25 12 7 0 4 5 -5 10 -17 10 -41 2 -218 -72 -30 -13 -71 -32 -90
-43 -19 -12 -60 -31 -90 -44 -30 -13 -77 -34 -105 -46 -27 -12 -58 -25 -67
-28 -10 -4 -18 -11 -18 -17 0 -6 -4 -9 -9 -5 -5 3 -12 1 -16 -5 -9 -14 -81
-50 -88 -44 -3 3 -15 -4 -26 -15 -16 -16 -28 -19 -51 -14 -26 5 -32 2 -36 -14
-4 -14 -14 -20 -30 -20 -13 0 -24 1 -24 4 0 11 22 43 29 43 5 0 62 25 127 56
183 85 236 109 245 110 5 1 10 2 12 4 1 1 9 3 18 5 9 1 49 19 90 38 41 19 103
47 139 63 36 15 72 33 80 39 8 6 29 17 45 25 17 8 35 20 40 26 6 6 33 19 60
29 28 10 64 26 80 35 17 10 47 21 67 25 20 4 39 14 42 22 4 9 14 13 26 10 13
-3 21 1 25 14 4 10 11 19 16 19 5 0 9 4 9 9 0 11 -50 11 -71 0 -9 -4 -28 -10
-43 -13 -15 -3 -42 -13 -60 -24 -17 -10 -45 -22 -61 -26 -25 -6 -27 -5 -16 8
11 13 11 16 -2 16 -8 0 -17 -5 -19 -11 -4 -13 -78 -30 -78 -18 0 18 -31 8 -52
-16 -23 -27 -44 -32 -50 -14 -3 8 -11 8 -28 -2 -14 -8 -27 -17 -30 -20 -3 -4
-16 -6 -30 -5 -14 1 -46 -9 -71 -21 -26 -13 -57 -25 -70 -27 -13 -2 -23 -8
-22 -13 1 -6 -11 -10 -28 -11 -32 -1 -119 -40 -132 -59 -4 -7 -14 -10 -22 -6
-8 3 -27 -3 -43 -13 -15 -10 -31 -17 -36 -16 -5 2 -17 -5 -27 -14 -11 -10 -22
-14 -25 -11 -4 3 -15 2 -25 -4 -14 -7 -17 -6 -13 5 3 7 15 18 27 24 12 6 16
11 10 11 -7 1 -13 5 -13 9 0 11 60 45 67 38 3 -3 17 4 32 15 22 18 26 19 29 5
2 -9 7 -16 12 -16 5 0 7 6 4 14 -3 9 10 19 38 31 24 9 45 20 48 24 3 4 40 20
83 36 42 16 77 33 77 37 0 5 6 8 14 8 7 0 19 6 25 14 7 8 35 20 64 27 29 6 61
18 72 24 11 7 37 18 57 24 40 13 72 41 46 41 -8 0 -32 -9 -54 -19 -21 -11 -42
-17 -45 -15 -8 4 -159 -50 -202 -73 -18 -10 -34 -17 -37 -18 -3 0 -9 -3 -15
-6 -5 -4 -26 -10 -45 -14 -19 -4 -41 -11 -50 -15 -8 -4 -40 -16 -70 -25 -30
-10 -64 -24 -75 -32 -27 -18 -39 -16 -30 5 4 9 9 24 10 32 3 26 55 134 68 142
9 6 8 8 -3 9 -8 1 -18 1 -22 0 -10 -1 -10 2 2 35 6 15 13 24 17 20 13 -13 88
129 77 146 -4 6 -6 37 -5 70 1 52 -2 61 -18 65 -16 4 -19 11 -14 37 3 17 16
42 28 56 13 14 26 36 30 50 23 86 45 105 45 39 0 -24 4 -38 10 -34 6 3 10 35
10 70 0 58 -2 65 -27 83 -25 17 -33 18 -76 7 -26 -7 -58 -22 -70 -34 -13 -11
-31 -21 -41 -21 -9 0 -26 -5 -37 -10 -13 -8 -19 -7 -19 0 0 19 32 74 60 102
15 15 37 45 48 67 36 69 46 85 80 129 20 25 41 41 50 40 11 -2 18 5 20 20 2
12 10 22 19 22 18 0 42 28 43 50 0 9 -10 3 -24 -15 -28 -34 -45 -28 -28 10 11
24 10 25 -7 15 -28 -15 -31 -13 -31 17 0 35 -17 18 -22 -21 -5 -44 -28 -46
-28 -3 0 52 -9 70 -26 56 -20 -17 -26 -6 -15 24 11 30 -1 44 -18 23 -7 -8 -9
-25 -5 -39 4 -19 0 -32 -15 -48 -29 -32 -49 -104 -49 -177 l0 -64 35 34 c26
24 32 27 24 11 -17 -34 -13 -41 9 -13 15 20 20 21 20 8 0 -9 -8 -23 -19 -30
-10 -7 -21 -23 -25 -34 -4 -12 -15 -24 -25 -27 -11 -2 -41 -49 -76 -118 -32
-63 -62 -116 -67 -117 -7 -3 -38 -66 -38 -78 0 -8 46 22 83 54 39 34 68 40 85
20 10 -14 -1 -124 -14 -136 -4 -4 -4 10 -1 31 8 51 -8 38 -28 -23 -9 -28 -23
-56 -30 -63 -18 -19 -30 -77 -15 -77 33 0 -21 -209 -64 -253 -19 -19 -30 -57
-16 -57 7 0 3 -15 -9 -37 -11 -21 -25 -51 -31 -66 -6 -16 -15 -25 -21 -22 -6
4 -8 13 -5 21 3 8 3 14 0 14 -2 0 -9 -10 -14 -22 -7 -19 -9 -19 -9 -5 -1 10
-5 16 -11 12 -5 -3 -7 -13 -4 -23 5 -16 5 -16 -9 1 -8 9 -19 17 -26 17 -6 0
-11 5 -11 10 0 6 -41 10 -103 10 -94 0 -104 -2 -128 -24 l-27 -24 3 64 c1 35
-1 64 -5 64 -4 0 -15 -25 -25 -55 -17 -49 -35 -72 -35 -46 0 16 52 154 65 174
12 17 13 16 19 -5 7 -21 9 -19 28 20 11 24 22 60 24 80 9 67 14 83 25 76 6 -3
13 3 16 15 3 12 11 21 18 21 16 0 26 23 32 70 2 19 8 39 14 45 5 5 9 24 9 42
0 33 66 253 76 253 3 0 2 -10 -2 -22 -4 -13 10 -1 31 27 21 28 44 56 51 62 7
7 14 17 16 21 1 5 14 13 26 17 20 6 23 4 19 -12 -3 -10 -8 -40 -12 -68 -4 -27
-16 -68 -26 -90 -17 -35 -17 -37 -2 -16 10 13 32 37 50 55 40 40 58 99 35 118
-12 10 -16 10 -19 1 -3 -7 -9 -13 -15 -13 -5 0 2 21 16 46 21 37 26 60 26 115
l0 69 -35 -3 c-24 -1 -37 -8 -44 -24 -6 -13 -16 -23 -22 -23 -7 0 -34 -24 -61
-52 -47 -51 -49 -52 -43 -23 10 50 -12 5 -36 -72 -36 -116 -45 -157 -39 -183
4 -17 -4 -39 -31 -80 -20 -30 -43 -73 -52 -95 -10 -26 -16 -33 -17 -20 0 15
-6 11 -25 -19 -20 -33 -22 -41 -10 -50 12 -9 11 -22 -6 -84 -28 -106 -56 -186
-97 -282 -13 -31 -16 -3 -3 32 4 13 11 37 15 53 7 28 6 29 -7 10 -8 -11 -27
-55 -42 -98 -15 -43 -30 -76 -32 -73 -5 4 26 93 88 258 34 92 35 98 9 98 -24
0 -50 -47 -50 -89 0 -36 -16 -49 -23 -19 -3 11 5 55 19 97 14 42 32 99 39 126
8 28 17 58 20 68 14 34 -10 16 -27 -21 -43 -92 -60 -139 -60 -169 0 -18 -4
-33 -9 -33 -4 0 -6 -6 -3 -14 3 -8 1 -17 -5 -21 -6 -3 -11 0 -12 7 0 7 -4 4
-9 -7 -12 -27 -12 -43 0 -25 6 9 10 10 10 3 0 -6 -4 -14 -9 -18 -5 -3 -15 -30
-22 -60 -7 -30 -16 -55 -21 -55 -11 0 -10 11 7 61 9 26 12 46 6 52 -5 5 2 35
19 77 15 37 37 96 49 131 19 55 32 88 49 122 2 5 -5 3 -16 -4 -10 -7 -27 -35
-37 -63 -10 -28 -21 -55 -26 -61 -4 -5 -12 -30 -19 -55 -30 -110 -70 -205 -93
-215 -18 -8 -23 -19 -25 -63 l-3 -52 -23 17 c-16 12 -21 24 -18 45 3 20 -2 34
-15 46 -11 9 -23 30 -27 45 -4 15 -16 31 -29 36 -14 6 -37 39 -66 95 -23 48
-45 85 -48 82 -6 -6 136 -294 155 -312 20 -20 4 -39 -16 -20 -10 8 -21 15 -27
15 -5 1 -11 9 -11 19 -1 9 -2 23 -3 30 -1 7 -5 11 -9 8 -4 -2 -9 5 -9 17 -3
32 -24 66 -38 61 -8 -3 -26 18 -46 53 -18 32 -36 60 -40 63 -5 3 -18 28 -30
55 -12 28 -37 73 -55 100 -19 28 -50 88 -70 135 -49 114 -113 250 -118 250 -2
0 0 -17 5 -37 12 -55 -4 -60 -35 -11 -15 24 -25 35 -22 26 3 -10 9 -26 12 -35
10 -30 -72 111 -126 217 -29 55 -62 106 -74 112 -18 10 -19 9 -9 -4 7 -8 10
-18 6 -21 -3 -4 -12 1 -20 11 -14 18 13 -51 40 -103 38 -71 68 -143 71 -171 5
-40 83 -194 98 -194 6 0 9 -3 5 -6 -3 -3 1 -13 9 -22 7 -10 21 -26 29 -37 18
-22 18 -26 -2 45 -9 33 69 -125 98 -197 17 -43 42 -98 57 -123 14 -25 64 -124
110 -220 46 -96 89 -181 94 -188 6 -7 8 -15 5 -19 -4 -3 -11 6 -18 19 -8 19
-16 24 -36 20 -15 -3 -29 1 -34 9 -8 12 -10 12 -18 0 -5 -8 -20 -15 -33 -16
-18 -2 -27 7 -45 44 -23 49 -22 67 2 35 22 -29 18 -9 -10 47 -14 27 -29 47
-34 45 -4 -3 -20 16 -34 42 -51 95 -204 399 -232 462 -15 36 -30 59 -33 52 -2
-7 8 -32 22 -56 14 -25 26 -56 26 -70 0 -14 8 -33 19 -43 27 -26 63 -102 57
-119 -3 -8 -2 -13 3 -10 8 5 140 -261 230 -469 35 -79 94 -199 107 -215 6 -8
14 -24 17 -35 6 -16 3 -15 -12 5 -11 14 -27 33 -35 42 -14 16 -40 68 -107 214
l-19 41 -60 -3 c-68 -3 -81 -8 -74 -32 6 -21 -29 48 -54 108 -11 25 -23 56
-27 70 -4 14 -13 39 -20 55 -71 165 -184 419 -265 595 -31 69 -69 161 -85 205
-15 44 -40 108 -56 143 -16 35 -29 67 -29 70 0 4 -27 74 -60 156 -33 82 -58
151 -56 153 2 3 7 -5 11 -16 3 -12 12 -21 18 -21 7 0 32 -31 57 -69 25 -37 51
-77 58 -87 17 -27 -54 111 -86 167 -15 25 -32 44 -39 42 -6 -2 -19 12 -28 31
-10 20 -34 53 -54 74 -20 20 -44 49 -54 62 l-18 25 5 -23z m780 -908 c3 -8 2
-12 -4 -9 -6 3 -10 10 -10 16 0 14 7 11 14 -7z m1522 -39 c10 -24 -6 -38 -21
-18 -7 10 -11 21 -9 25 8 13 24 9 30 -7z m-536 -129 c0 -3 -4 -16 -10 -30 -14
-37 -32 -33 -19 4 6 17 15 30 20 30 5 0 9 -2 9 -4z m470 -140 c0 -8 -4 -18
-10 -21 -5 -3 -10 3 -10 14 0 12 5 21 10 21 6 0 10 -6 10 -14z m-1260 -91 c0
-5 -5 -3 -10 5 -5 8 -10 20 -10 25 0 6 5 3 10 -5 5 -8 10 -19 10 -25z m44 -91
c3 -8 2 -12 -4 -9 -6 3 -10 10 -10 16 0 14 7 11 14 -7z m447 -87 c-13 -13 -15
1 -4 30 7 17 8 17 11 -1 2 -10 -1 -23 -7 -29z m37 -24 c-26 -76 -41 -90 -22
-22 22 78 22 79 33 79 5 0 0 -26 -11 -57z m-141 -75 c-3 -8 -6 -5 -6 6 -1 11
2 17 5 13 3 -3 4 -12 1 -19z m164 -69 c-9 -22 -10 -22 -10 -3 -1 11 2 24 6 27
12 12 14 0 4 -24z m-14 -61 c-3 -7 -5 -2 -5 12 0 14 2 19 5 13 2 -7 2 -19 0
-25z m43 2 c0 -5 -4 -10 -10 -10 -5 0 -10 5 -10 10 0 6 5 10 10 10 6 0 10 -4
10 -10z m1280 -250 c0 -5 -5 -10 -11 -10 -5 0 -7 5 -4 10 3 6 8 10 11 10 2 0
4 -4 4 -10z m-237 -596 c9 -4 17 -10 17 -14 0 -13 -38 0 -52 18 -11 13 -11 14
2 9 8 -4 23 -10 33 -13z m-906 -180 c-10 -10 -37 16 -37 34 0 13 4 12 22 -5
12 -13 19 -25 15 -29z m1423 36 c0 -5 -2 -10 -4 -10 -3 0 -8 5 -11 10 -3 6 -1
10 4 10 6 0 11 -4 11 -10z m-1116 -173 c94 -32 186 -60 205 -62 19 -2 37 -7
40 -12 3 -5 19 -14 35 -21 42 -19 24 -26 -19 -7 -21 8 -40 13 -43 10 -3 -2
-17 2 -31 9 -14 8 -97 37 -184 65 -175 57 -238 84 -273 116 -40 37 -15 36 43
-3 35 -23 119 -58 227 -95z m1221 113 c3 -5 1 -10 -4 -10 -6 0 -11 5 -11 10 0
6 2 10 4 10 3 0 8 -4 11 -10z m-1577 -96 c2 -1 -6 -30 -19 -63 -12 -34 -24
-60 -26 -58 -2 2 1 16 6 31 6 14 7 35 3 47 -7 18 -14 6 -41 -65 -18 -48 -35
-86 -37 -84 -4 4 30 100 61 175 15 37 20 41 34 31 9 -7 18 -13 19 -14z m255
-100 c59 -13 148 -39 276 -80 8 -2 12 -6 10 -9 -3 -2 -52 11 -109 29 -91 29
-107 32 -121 20 -8 -8 -22 -14 -29 -14 -7 0 -27 -10 -44 -23 -26 -20 -54 -35
-76 -42 -8 -2 -80 -35 -132 -61 -27 -13 -48 -19 -48 -13 0 5 12 14 28 20 15 6
22 13 15 16 -6 2 -36 -9 -67 -26 l-55 -31 9 31 c5 17 13 36 18 42 5 7 24 50
42 97 18 47 36 95 41 107 l8 22 81 -35 c44 -18 113 -41 153 -50z m-317 -84
c-20 -66 -65 -164 -72 -157 -4 4 1 22 10 42 10 20 19 46 22 58 4 22 46 108 51
104 1 -2 -4 -23 -11 -47z m9 -140 c-3 -5 -12 -10 -18 -10 -7 0 -6 4 3 10 19
12 23 12 15 0z m775 -360 c0 -5 -5 -10 -11 -10 -5 0 -7 5 -4 10 3 6 8 10 11
10 2 0 4 -4 4 -10z m-1410 -494 c0 -3 -4 -8 -10 -11 -5 -3 -10 -1 -10 4 0 6 5
11 10 11 6 0 10 -2 10 -4z"/>
<path d="M1120 4090 c22 -44 42 -80 44 -80 2 0 -12 36 -32 80 -20 44 -40 80
-44 80 -5 0 10 -36 32 -80z"/>
<path d="M2732 3670 c-6 -11 -12 -24 -12 -30 0 -6 -16 -33 -35 -61 -50 -73
-48 -89 5 -41 26 25 70 113 70 142 0 16 -14 11 -28 -10z"/>
<path d="M1720 3651 c0 -6 4 -13 10 -16 6 -3 7 1 4 9 -7 18 -14 21 -14 7z"/>
<path d="M1740 3614 c0 -13 79 -184 85 -184 6 0 -7 34 -48 120 -20 41 -36 70
-37 64z"/>
<path d="M2840 3581 c0 -6 5 -13 10 -16 6 -3 10 1 10 9 0 9 -4 16 -10 16 -5 0
-10 -4 -10 -9z"/>
<path d="M2365 3519 c-9 -17 -15 -33 -13 -35 3 -2 12 12 21 31 21 43 13 47 -8
4z"/>
<path d="M2776 3341 c-4 -7 -5 -15 -2 -18 9 -9 19 4 14 18 -4 11 -6 11 -12 0z"/>
<path d="M2328 3295 c-6 -29 7 -43 16 -19 9 23 7 44 -3 44 -5 0 -11 -11 -13
-25z"/>
<path d="M3910 3170 c-8 -5 -12 -11 -9 -14 2 -3 11 -1 19 4 8 5 12 11 9 14 -2
3 -11 1 -19 -4z"/>
<path d="M1800 3000 c0 -5 5 -10 11 -10 5 0 7 5 4 10 -3 6 -8 10 -11 10 -2 0
-4 -4 -4 -10z"/>
<path d="M1630 2980 c0 -5 5 -10 11 -10 5 0 7 5 4 10 -3 6 -8 10 -11 10 -2 0
-4 -4 -4 -10z"/>
<path d="M3680 2960 c0 -5 7 -10 15 -10 8 0 15 5 15 10 0 6 -7 10 -15 10 -8 0
-15 -4 -15 -10z"/>
<path d="M3625 2940 c-3 -6 1 -7 9 -4 18 7 21 14 7 14 -6 0 -13 -4 -16 -10z"/>
<path d="M1371 2890 c14 -31 19 -36 19 -24 0 6 -7 19 -16 30 -14 18 -14 18 -3
-6z"/>
<path d="M3900 2825 c-8 -9 -8 -15 -2 -15 12 0 26 19 19 26 -2 2 -10 -2 -17
-11z"/>
<path d="M1400 2821 c0 -6 4 -13 10 -16 6 -3 7 1 4 9 -7 18 -14 21 -14 7z"/>
<path d="M3860 2740 c0 -4 -12 -7 -27 -7 -52 0 -104 -14 -97 -25 5 -7 2 -8 -5
-4 -7 5 -20 2 -29 -6 -9 -8 -28 -15 -41 -16 -13 0 -41 -13 -64 -28 -30 -20
-36 -28 -26 -35 8 -5 19 -9 24 -9 6 0 4 4 -3 9 -10 6 -4 13 22 25 19 9 38 21
41 26 4 6 10 8 14 6 4 -3 25 0 47 5 56 14 125 19 119 9 -3 -5 10 -9 30 -8 25
1 34 5 31 15 -3 7 1 13 9 13 8 0 15 5 15 10 0 12 22 9 31 -4 4 -5 17 -1 30 8
l23 16 -34 2 c-90 5 -110 5 -110 -2z"/>
<path d="M3704 2625 c-4 -8 -16 -15 -28 -15 -34 0 -77 -23 -71 -39 3 -7 1 -19
-5 -26 -8 -10 -8 -15 0 -20 19 -12 33 10 21 33 -8 16 -6 21 15 31 14 6 38 11
54 11 17 0 30 2 30 4 0 2 3 11 6 20 3 9 1 16 -5 16 -7 0 -14 -7 -17 -15z"/>
<path d="M3545 2580 c-3 -5 3 -10 14 -10 11 0 23 5 26 10 3 6 -3 10 -14 10
-11 0 -23 -4 -26 -10z"/>
<path d="M3519 2548 c-12 -39 9 -50 44 -24 16 12 16 14 1 20 -16 6 -43 8 -45
4z"/>
<path d="M3383 2525 c0 -8 4 -12 9 -9 5 3 6 10 3 15 -9 13 -12 11 -12 -6z"/>
<path d="M3462 2531 c-11 -7 -10 -10 3 -15 19 -7 35 0 35 15 0 11 -20 12 -38
0z"/>
<path d="M3603 2473 c-7 -2 -13 -9 -13 -15 0 -6 6 -6 15 2 8 7 21 10 30 7 8
-4 16 -3 19 1 5 9 -33 12 -51 5z"/>
<path d="M3539 2460 c-9 -5 -31 -12 -50 -15 -19 -3 -51 -10 -72 -15 -29 -6
-40 -5 -43 5 -3 8 -11 12 -18 9 -7 -3 -30 -6 -52 -8 -21 -2 -67 -16 -102 -30
-68 -29 -86 -33 -117 -21 -16 5 -17 5 -5 -4 13 -9 13 -11 -2 -11 -10 0 -18 -4
-18 -10 0 -5 -8 -10 -19 -10 -20 0 -48 -27 -38 -36 3 -3 27 -1 54 5 26 7 55
13 63 14 8 1 21 8 28 15 7 6 21 12 30 12 15 0 15 -2 2 -10 -9 -6 -10 -10 -3
-10 6 0 20 10 30 23 25 30 42 32 36 4 -4 -21 -4 -22 11 -3 9 11 16 23 16 26 0
3 17 12 38 19 20 8 44 16 52 19 13 5 13 3 1 -11 -7 -9 -24 -17 -37 -17 -12 0
-26 -5 -30 -11 -4 -8 4 -9 27 -4 19 4 37 13 41 19 5 8 11 7 20 -2 17 -17 36
-15 59 7 11 10 32 18 45 16 13 -1 24 2 24 6 0 5 7 9 16 9 8 0 22 7 30 15 17
17 8 19 -17 5z"/>
<path d="M2770 2409 c0 -5 5 -7 10 -4 6 3 10 8 10 11 0 2 -4 4 -10 4 -5 0 -10
-5 -10 -11z"/>
<path d="M2953 2333 c-7 -2 -13 -11 -13 -19 0 -8 -6 -11 -15 -8 -11 4 -13 2
-9 -9 4 -12 12 -13 36 -6 38 11 42 14 35 34 -7 15 -13 17 -34 8z m24 -19 c-3
-3 -12 -4 -19 -1 -8 3 -5 6 6 6 11 1 17 -2 13 -5z"/>
<path d="M2864 2283 c4 -8 3 -20 -1 -26 -8 -12 -9 -17 -12 -37 0 -5 -8 -10
-16 -10 -8 0 -15 -4 -15 -10 0 -5 5 -10 10 -10 11 0 60 -45 60 -54 0 -3 -8 -3
-17 1 -14 4 -15 3 -7 -6 12 -13 47 -4 38 10 -3 5 6 4 20 -2 14 -7 23 -16 19
-22 -3 -6 -1 -7 5 -3 21 13 13 24 -28 42 -21 10 -37 21 -34 26 3 4 -2 11 -11
14 -9 4 -13 10 -8 13 10 7 37 62 38 76 0 6 -10 11 -23 11 -16 1 -21 -3 -18
-13z"/>
<path d="M3470 2232 c19 -11 37 -15 39 -10 4 13 1 15 -39 23 l-35 7 35 -20z"/>
<path d="M3540 2226 c0 -3 9 -10 20 -16 11 -6 20 -8 20 -6 0 3 -9 10 -20 16
-11 6 -20 8 -20 6z"/>
<path d="M3516 2185 c-3 -8 0 -17 6 -21 6 -4 8 -3 4 4 -3 5 -1 12 6 14 8 3 9
6 1 11 -6 4 -13 0 -17 -8z"/>
<path d="M2970 2100 c0 -5 4 -10 9 -10 6 0 13 5 16 10 3 6 -1 10 -9 10 -9 0
-16 -4 -16 -10z"/>
<path d="M3043 2075 c0 -8 4 -12 8 -9 4 2 19 0 33 -6 34 -13 33 2 -1 18 -34
15 -40 15 -40 -3z"/>
<path d="M3430 2050 c0 -5 5 -10 11 -10 5 0 7 5 4 10 -3 6 -8 10 -11 10 -2 0
-4 -4 -4 -10z"/>
<path d="M3220 2010 c0 -5 5 -10 10 -10 6 0 10 5 10 10 0 6 -4 10 -10 10 -5 0
-10 -4 -10 -10z"/>
<path d="M3690 1939 c0 -5 5 -7 10 -4 6 3 10 8 10 11 0 2 -4 4 -10 4 -5 0 -10
-5 -10 -11z"/>
<path d="M1856 1667 c3 -10 9 -15 12 -12 3 3 0 11 -7 18 -10 9 -11 8 -5 -6z"/>
<path d="M1870 1635 c0 -5 5 -17 10 -25 5 -8 10 -10 10 -5 0 6 -5 17 -10 25
-5 8 -10 11 -10 5z"/>
<path d="M2400 860 c-9 -6 -10 -10 -3 -10 6 0 15 5 18 10 8 12 4 12 -15 0z"/>
<path d="M1580 558 c0 -4 4 -8 9 -8 6 0 12 4 15 8 3 5 -1 9 -9 9 -8 0 -15 -4
-15 -9z"/>
</g>
</svg>
